# xmcd
#
# Track frame offsets: 
#        150
#        17827
#        56827
#        76680
#        106000
#        125890
#        140682
#        168415
#        188352
#        204797
#        215265
#        252082
#        277582
#        292807
#
# Disc length: 4427 seconds
#
# Revision: 3
# Processed by: cddbd v1.5.2PL0 Copyright (c) Steve Scherf et al.
# Submitted via: ExactAudioCopy v1.0b3
#
DISCID=b511490e
DTITLE=Lofgren, Nils - everybreath
DYEAR=1993
DGENRE=West Coast
TTITLE0=No Return
TTITLE1=Tender Love
TTITLE2=Take Me Home
TTITLE3=No Tomorrow
TTITLE4=Dreams Come True
TTITLE5=Rainy Nights
TTITLE6=Alone
TTITLE7=Tryin' Not To Fall
TTITLE8=Good Day For Goodbyes
TTITLE9=Lions Wake
TTITLE10=Out Of The Grave
TTITLE11=A. Lefty
TTITLE12=Tough Trails
TTITLE13=Fallen Into His Hands
EXTD=Crisis 500 008-2\n(C) and (P) 1994 Hilmer Music Publishing Company 
EXTD=Inc.
EXTT0=
EXTT1=
EXTT2=
EXTT3=
EXTT4=
EXTT5=
EXTT6=
EXTT7=
EXTT8=
EXTT9=
EXTT10=
EXTT11=
EXTT12=
EXTT13=
PLAYORDER=
